<svg width="12" height="13" viewBox="0 0 12 13" fill="none" xmlns="http://www.w3.org/2000/svg">
<path d="M6.95028 5.73984C6.51221 5.30488 5.91817 5.06055 5.29877 5.06055C4.67938 5.06055 4.08534 5.30488 3.64727 5.73984L1.99522 7.38027C1.55714 7.8154 1.31104 8.40558 1.31104 9.02096C1.31104 9.63634 1.55714 10.2265 1.99522 10.6617C2.4333 11.0968 3.02746 11.3413 3.647 11.3413C4.26653 11.3413 4.8607 11.0968 5.29877 10.6617L6.12453 9.84144" stroke="black" stroke-width="1.58333" stroke-linecap="round" stroke-linejoin="round"/>
<path d="M5.29874 7.38072C5.73681 7.81567 6.33085 8.06001 6.95024 8.06001C7.56964 8.06001 8.16368 7.81567 8.60175 7.38072L10.2538 5.74029C10.6919 5.30515 10.938 4.71497 10.938 4.09959C10.938 3.48421 10.6919 2.89403 10.2538 2.4589C9.81572 2.02376 9.22156 1.7793 8.60202 1.7793C7.98248 1.7793 7.38832 2.02376 6.95024 2.4589L6.12449 3.27911" stroke="black" stroke-width="1.58333" stroke-linecap="round" stroke-linejoin="round"/>
</svg>
